<?xml version="1.0" standalone="no"?><!DOCTYPE svg PUBLIC "-//W3C//DTD SVG 1.1//EN" "http://www.w3.org/Graphics/SVG/1.1/DTD/svg11.dtd"><svg t="1652077457496" class="icon" viewBox="0 0 1251 1024" version="1.1" xmlns="http://www.w3.org/2000/svg" p-id="5392" xmlns:xlink="http://www.w3.org/1999/xlink" width="244.3359375" height="200"><defs><style type="text/css">@font-face { font-family: feedback-iconfont; src: url("//at.alicdn.com/t/font_1031158_u69w8yhxdu.woff2?t=1630033759944") format("woff2"), url("//at.alicdn.com/t/font_1031158_u69w8yhxdu.woff?t=1630033759944") format("woff"), url("//at.alicdn.com/t/font_1031158_u69w8yhxdu.ttf?t=1630033759944") format("truetype"); }
</style></defs><path d="M224.426667 544.426667a41.699556 41.699556 0 0 0-36.977778 36.920889c-2.730667 26.510222 19.512889 48.924444 46.193778 46.08a41.984 41.984 0 0 0 37.034666-36.977778 42.040889 42.040889 0 0 0-46.250666-46.08z m81.351111-68.266667a60.984889 60.984889 0 1 0-11.036445-121.457778 60.984889 60.984889 0 0 0 11.036445 121.457778zM506.311111 200.419556a76.572444 76.572444 0 0 0-71.224889 71.168 76.515556 76.515556 0 0 0 81.180445 81.237333 76.572444 76.572444 0 0 0 71.224889-71.224889A76.515556 76.515556 0 0 0 506.311111 200.419556z m274.773333-17.464889a93.866667 93.866667 0 1 0 12.401778 187.107555 93.866667 93.866667 0 0 0-12.401778-187.164444z m459.491556 30.151111a37.603556 37.603556 0 0 0-13.084444-26.168889l-0.910223-0.796445a37.888 37.888 0 0 0-53.873777 3.868445l-455.509334 524.401778-58.026666 114.005333 1.536 1.137778-6.542223 15.132444 14.791111-7.907555 1.991112 1.706666 103.992888-72.362666 456.419556-525.312a38.343111 38.343111 0 0 0 9.216-27.761778z m-91.591111 266.467555a38.115556 38.115556 0 0 0-40.561778 27.648c-9.216 32.768-25.713778 85.959111-46.819555 130.389334-30.378667 64.284444-86.471111 153.713778-180.792889 214.926222a461.937778 461.937778 0 0 1-252.245334 75.605333c-49.322667 0-96.256-8.135111-135.623111-23.608889-35.84-13.994667-61.838222-32.824889-73.159111-52.906666-4.551111-8.135111-9.671111-17.237333-14.961778-26.965334-22.926222-41.472-48.810667-88.689778-66.275555-103.196444-21.162667-17.635556-52.110222-20.024889-79.701334-20.024889-10.808889 0-54.442667 1.706667-64.682666 1.706667-44.145778 0-65.877333-8.590222-74.808889-29.809778-23.722667-56.376889-9.728-152.405333 35.726222-244.565333 70.428444-142.392889 196.835556-246.499556 346.965333-285.582223 53.304889-14.108444 108.259556-25.201778 161.735112-25.201777 114.119111 0 250.368 43.747556 336.668444 102.968888a35.555556 35.555556 0 1 0 38.513778-59.619555c-31.061333-18.659556-77.198222-45.340444-115.086222-62.805333A595.512889 595.512889 0 0 0 671.630222 42.666667c-90.794667 0-198.428444 21.845333-289.564444 62.919111A570.766222 570.766222 0 0 0 142.791111 302.250667C94.264889 370.801778 52.337778 450.389333 36.010667 527.189333c-10.012444 46.819556-9.102222 76.572444-3.185778 117.077334 5.575111 38.912 17.863111 69.973333 35.84 89.998222 29.866667 33.450667 68.721778 49.891556 118.670222 49.891555 18.545778 0 75.093333-6.712889 84.195556-6.712888 9.841778 0 16.213333 1.649778 19.171555 5.12 8.533333 9.841778 19.171556 29.809778 31.573334 53.191111 10.012444 18.773333 21.219556 40.106667 33.905777 60.359111 16.099556 25.998222 49.152 53.873778 88.632889 74.524444 36.010667 18.830222 95.857778 41.358222 176.298667 41.358222 95.971556 0 197.688889-31.459556 302.250667-93.468444 99.84-59.164444 164.010667-158.549333 200.248888-231.480889 25.372444-51.029333 46.307556-116.224 58.424889-158.776889a38.456889 38.456889 0 0 0-33.052444-48.696889z" p-id="5393"></path></svg>