<?xml version="1.0" standalone="no"?><!DOCTYPE svg PUBLIC "-//W3C//DTD SVG 1.1//EN"
	"http://www.w3.org/Graphics/SVG/1.1/DTD/svg11.dtd">
<svg t="1652077354963" class="icon" viewBox="0 0 1024 1024" version="1.1" xmlns="http://www.w3.org/2000/svg" p-id="1991"
	 xmlns:xlink="http://www.w3.org/1999/xlink" width="200" height="200">
	<defs>
		<style type="text/css">@font-face { font-family: feedback-iconfont; src:
			url("//at.alicdn.com/t/font_1031158_u69w8yhxdu.woff2?t=1630033759944") format("woff2"),
			url("//at.alicdn.com/t/font_1031158_u69w8yhxdu.woff?t=1630033759944") format("woff"),
			url("//at.alicdn.com/t/font_1031158_u69w8yhxdu.ttf?t=1630033759944") format("truetype"); }
		</style>
	</defs>
	<path
		d="M183.36 176.128c47.04 0 85.376 38.336 85.376 85.376 0 47.04-38.336 85.376-85.376 85.376a85.504 85.504 0 0 1-85.376-85.376c0-47.04 38.272-85.376 85.376-85.376m0-64a149.312 149.312 0 1 0-0.064 298.688 149.312 149.312 0 0 0 0.064-298.688zM840.704 176.128c47.104 0 85.44 38.336 85.44 85.376 0 47.04-38.336 85.376-85.44 85.376a85.504 85.504 0 0 1-85.376-85.376c0-47.04 38.272-85.376 85.376-85.376m0-64a149.376 149.376 0 1 0 0 298.752 149.376 149.376 0 0 0 0-298.752zM512 752.256a85.504 85.504 0 0 1 0 170.816 85.504 85.504 0 0 1-85.376-85.376A85.568 85.568 0 0 1 512 752.256m0-64a149.376 149.376 0 1 0 0 298.816 149.312 149.312 0 0 0 149.312-149.376A149.248 149.248 0 0 0 512 688.256z"
		 p-id="1992"></path>
	<path
		d="M264.256 828.416a31.872 31.872 0 0 1-19.84-6.912A428.288 428.288 0 0 1 80.832 483.84c0-42.88 6.336-85.248 18.752-125.824a32 32 0 0 1 61.184 18.816 364.8 364.8 0 0 0-15.936 107.008c0 112.576 50.752 217.408 139.328 287.552a32 32 0 0 1-19.904 57.024zM645.44 890.688a32.064 32.064 0 0 1-10.816-62.144 367.04 367.04 0 0 0 242.624-344.704 32 32 0 0 1 64 0 431.232 431.232 0 0 1-284.992 404.992 33.728 33.728 0 0 1-10.816 1.856zM762.688 202.56a31.744 31.744 0 0 1-20.224-7.232c-98.24-80.192-238.144-103.36-356.16-60.544a32.064 32.064 0 0 1-21.824-60.224c138.752-50.368 303.104-23.104 418.496 71.168a32.064 32.064 0 0 1-20.288 56.832z"
		p-id="1993"></path>
</svg>
